<?xml version="1.0" encoding="utf-8"?>
<!-- Generator: Adobe Illustrator 23.0.0, SVG Export Plug-In . SVG Version: 6.00 Build 0)  -->
<svg version="1.1" id="Layer_1" xmlns="http://www.w3.org/2000/svg" xmlns:xlink="http://www.w3.org/1999/xlink" x="0px" y="0px"
	 viewBox="0 0 500 500" style="enable-background:new 0 0 500 500;" xml:space="preserve">
<style type="text/css">
	.st0{fill:#FFBB40;}
	.st1{fill:#94CDFF;}
	.st2{fill:#A0A7FF;}
	.st3{fill:#A1ACFF;}
	.st4{fill:#6491FF;}
	.st5{fill:#889BFF;}
	.st6{fill:#946DED;}
	.st7{fill:#956DEB;}
	.st8{fill:#9BE9FF;}
	.st9{fill:#6267F1;}
	.st10{fill:#FFBC40;}
	.st11{fill:#95D1FF;}
	.st12{fill:#837EFF;}
	.st13{fill:#886AFF;}
	.st14{fill:#889EFF;}
	.st15{fill:#7F54F3;}
	.st16{fill:#FF05DF;}
	.st17{fill:#FF92FF;}
	.st18{fill:#FF44BE;}
	.st19{fill:#FFC7FF;}
	.st20{fill:#7D7FFF;}
	.st21{fill:#8055F3;}
	.st22{fill:#6977FF;}
	.st23{fill:#6D8FFF;}
	.st24{fill:#6397FF;}
	.st25{fill:#9D89FE;}
	.st26{fill:#745BCC;}
	.st27{fill:#FF05D6;}
	.st28{fill:#FF42BB;}
	.st29{fill:#A1B2FF;}
	.st30{fill:#FF87D3;}
	.st31{fill:#FFE699;}
	.st32{fill:#FE82D1;}
	.st33{fill:#9C89FF;}
	.st34{fill:#8CB4FF;}
	.st35{fill:#FF09D5;}
	.st36{fill:#FFAE45;}
	.st37{fill:#FF38BC;}
	.st38{fill:#A1AFFF;}
	.st39{fill:#FF74CC;}
	.st40{fill:#FFD65D;}
	.st41{fill:#FEEAC6;}
	.st42{fill:#A5C3FF;}
	.st43{fill:#7357D3;}
	.st44{fill:#7F54F2;}
	.st45{fill:#97D6FF;}
	.st46{fill:#695CBA;}
	.st47{fill:#FFF4B7;}
	.st48{fill:#FFDE73;}
	.st49{fill:#FECA67;}
	.st50{fill:#FFA537;}
	.st51{fill:#6164F2;}
	.st52{fill:#887DFF;}
	.st53{fill:#FEECA9;}
	.st54{fill:#FEDDA4;}
	.st55{fill:#FFA73A;}
	.st56{fill:#FFD047;}
	.st57{fill:#FFE4FF;}
	.st58{fill:#FFD9FF;}
	.st59{fill:#FFB9FF;}
	.st60{fill:#FFD48B;}
	.st61{fill:#7F85FF;}
	.st62{fill:#FFF8C6;}
	.st63{fill:#FCE3B5;}
	.st64{fill:#FFFCDC;}
	.st65{fill:#FFA2FF;}
	.st66{fill:#FFBAFF;}
	.st67{fill:#6387FF;}
	.st68{fill:#FF9BFF;}
	.st69{fill:#FFA536;}
	.st70{fill:#FF64FF;}
	.st71{fill:#FEE487;}
	.st72{fill:#FF60FF;}
	.st73{fill:#FFC55C;}
	.st74{fill:#5B66C3;}
	.st75{fill:#FFE076;}
	.st76{fill:#6E5AC8;}
	.st77{fill:#FF80D0;}
	.st78{fill:#FFCE42;}
	.st79{fill:#9483FE;}
	.st80{fill:#87B4FF;}
	.st81{fill:#FFCC3D;}
	.st82{fill:#FF74CD;}
	.st83{fill:#FFC04E;}
	.st84{fill:#FFBC42;}
	.st85{fill:#FFE6FF;}
	.st86{fill:#8D70EE;}
	.st87{fill:#9FA2FF;}
	.st88{fill:#FF41B9;}
	.st89{fill:#5666B3;}
	.st90{fill:#FF42BA;}
	.st91{fill:#FF80D1;}
	.st92{fill:#FFE1FF;}
	.st93{fill:#9DE0FF;}
	.st94{fill:#87B5FF;}
	.st95{fill:#6A5CBD;}
	.st96{fill:#FF04B2;}
	.st97{fill:#5D63DB;}
	.st98{fill:#FF08B0;}
	.st99{fill:#FFA9FF;}
	.st100{fill:#695CB9;}
	.st101{fill:#5665B4;}
	.st102{fill:#9586FF;}
	.st103{fill:#896EFF;}
	.st104{fill:#A4AAF4;}
	.st105{fill:#9BDFFF;}
	.st106{fill:#6F8DFF;}
	.st107{fill:#FF63C6;}
	.st108{fill:#FF01E3;}
	.st109{fill:#8880FF;}
	.st110{fill:#FFA7FF;}
	.st111{fill:#7F55F2;}
	.st112{fill:#7358D2;}
	.st113{fill:#FF43B9;}
	.st114{fill:#6164F1;}
	.st115{fill:#7F53F2;}
	.st116{fill:#9E9DFF;}
	.st117{fill:#5B63CD;}
	.st118{fill:#927CF6;}
	.st119{fill:#FF90FE;}
	.st120{fill:#8299FF;}
	.st121{fill:#A8A8FE;}
	.st122{fill:#A2B0FF;}
	.st123{fill:#FF65FD;}
	.st124{fill:#7A87FF;}
	.st125{fill:#839DFF;}
	.st126{fill:#6694FF;}
	.st127{fill:#FF30B3;}
	.st128{fill:#FF7CF6;}
	.st129{fill:#6F8EFF;}
	.st130{fill:#AC83E9;}
	.st131{fill:#FF03A9;}
	.st132{fill:#897FFF;}
	.st133{fill:#8A80FF;}
	.st134{fill:#A1ABFF;}
	.st135{fill:#8560FF;}
	.st136{fill:#907BF0;}
	.st137{fill:#FF00E2;}
	.st138{fill:#8C74ED;}
	.st139{fill:#8BC2FF;}
	.st140{fill:#AFB0FF;}
	.st141{fill:#6670FF;}
	.st142{fill:#86B7FF;}
	.st143{fill:#A0A5FF;}
	.st144{fill:#6596FF;}
	.st145{fill:#A4BDFF;}
	.st146{fill:#9ADAFF;}
	.st147{fill:#80A2FF;}
	.st148{fill:#998CFF;}
	.st149{fill:#9587FF;}
	.st150{fill:#98D7FF;}
	.st151{fill:#8B72EC;}
	.st152{fill:#83ADFF;}
	.st153{fill:#809EFF;}
	.st154{fill:#8C74EE;}
	.st155{fill:#7988FF;}
	.st156{fill:#89BEFF;}
	.st157{fill:#9184FF;}
	.st158{fill:#6398FF;}
	.st159{fill:#9AD6FF;}
	.st160{fill:#9FA1FF;}
	.st161{fill:#86B9FF;}
	.st162{fill:#9FA3FF;}
	.st163{fill:#96D5FF;}
	.st164{fill:#95D3FF;}
	.st165{fill:#A3C7FF;}
	.st166{fill:#A4BEFF;}
	.st167{fill:#A1EBFF;}
	.st168{fill:#A2F3FF;}
	.st169{fill:#FFBD42;}
</style>
<g>
	<g>
		<path class="st0" d="M282.42,62.98c0.24-3.41,3.94-4.51,6.59-5.56c1.85,1.34,4.68,2.12,5.17,4.68c0.79,2.7-0.43,5.69-2.75,7.23
			c-1.96,0.57-4.05,0.24-6.06,0.27C283.88,67.66,281.81,65.67,282.42,62.98z"/>
		<path class="st0" d="M180.61,73.45c-2.37-2.67-0.83-7.29,2.46-8.44c2.32-1.26,4.43,1.03,6.47,1.85c0,2.03,0,4.06-0.03,6.09
			c-1.15,0.9-2.28,1.81-3.41,2.73C184.14,75.41,181.91,75.17,180.61,73.45z"/>
		<path class="st0" d="M95.33,126.78c2.32,0.71,4.44,1.92,6.17,3.63c-0.01,2.06-0.01,4.12,0,6.18c-1.91,1.62-3.64,4.24-6.49,3.87
			c-2.79,0.39-4.92-1.93-6.24-4.08c-1.12-2.5,0.36-5.07,1.13-7.44C91.72,128.24,93.53,127.53,95.33,126.78z"/>
		<path class="st0" d="M441.54,212.1c2.32,0.02,4.57,0.55,6.05,2.49c-0.05,0.87-0.15,2.63-0.21,3.5c-0.73,0.82-1.45,1.63-2.17,2.45
			c-0.89,0.04-2.68,0.11-3.57,0.14C438.61,218.63,438.65,214.25,441.54,212.1z"/>
		<path class="st0" d="M50.04,219.92c1.92-4.56,8.54-7.27,12.45-3.46c2.83,1.98,3.25,5.44,3.11,8.64c-1.58,2.03-3.33,3.93-5.3,5.59
			c-2.07-0.12-4.15-0.06-6.19-0.46C50.42,228.57,48.12,223.7,50.04,219.92z"/>
		<path class="st0" d="M343.1,387.73c2.81,0.2,4.7,2.93,5.3,5.48c-0.41,1.4-1.07,2.72-1.63,4.08c-2.06,0.21-4.25,0.99-6.26,0.2
			c-1.02-0.82-1.9-1.78-2.81-2.69c-0.02-1.12-0.04-2.23-0.05-3.34C339.23,389.96,340.75,387.94,343.1,387.73z"/>
		<path class="st0" d="M152.36,397.54c-0.55-3.14,0.95-5.61,3.51-7.31c1.56,0.81,3.13,1.63,4.7,2.45c0.05,1.53,0.1,3.06,0.14,4.6
			c-0.7,0.72-1.4,1.44-2.1,2.17c-1.38,0.01-2.76,0.02-4.13,0.04C153.77,398.83,153.07,398.18,152.36,397.54z"/>
		<path class="st0" d="M284.48,429.75c2.2-0.6,4.92-0.61,6.61,1.15c3.42,3.16,1.79,10.04-3.07,10.69c-4.25,1.04-8.28-3.64-7.14-7.71
			C281.43,432.09,282.61,430.32,284.48,429.75z"/>
	</g>
	<g>
		<path class="st1" d="M264.49,77.5c2.2-2.32,7.39-1.48,6.79,2.46c-3.38,4.16-6.54,8.55-10.38,12.3c0.65-1.78,1.21-3.59,1.79-5.4
			c-2.28,0.57-4.54,1.14-6.8,1.73C258.44,84.67,261.05,80.71,264.49,77.5z"/>
	</g>
	<g>
		<path class="st2" d="M293.16,90.56c3.93-4.93,9.33-8.57,15.47-10.11c1.16,1.64,4,3.26,2.66,5.58c-4.34,2.58-8.87,4.87-13.1,7.67
			c0.21-1.07,0.41-2.13,0.6-3.19C296.91,90.53,295.03,90.54,293.16,90.56z"/>
	</g>
	<g>
		<path class="st3" d="M182.23,81.44c8.44-0.89,15.02,5.79,20.69,11.09l-1.44,0.79c-0.94,0.15-1.89,0.3-2.83,0.45
			c0.01,1.16,0.03,2.32,0.05,3.49c-4.02-3.4-8.09-6.74-12.57-9.53C183.8,86.43,182.76,83.93,182.23,81.44z"/>
	</g>
	<g>
		<path class="st4" d="M227.7,81.29c1.56,0.22,3.26,0.33,4.42,1.55c3.77,3.39,6.35,8.01,7.72,12.87c-1.17-0.48-2.32-0.96-3.48-1.44
			c-0.26,1.34-0.52,2.69-0.77,4.04c-2.45-3.91-4.96-8.37-9.87-9.46c-0.12-1.76-0.22-3.53-0.3-5.29
			C226.18,82.81,226.95,82.05,227.7,81.29z"/>
	</g>
	<g>
		<path class="st5" d="M255.89,88.59c2.26-0.59,4.52-1.16,6.8-1.73c-0.58,1.81-1.14,3.62-1.79,5.4c-5.37,9.62-9.33,20.03-10.8,30.99
			c-0.4,0.16-1.19,0.48-1.58,0.64C245.02,111.71,250.75,99.42,255.89,88.59z"/>
	</g>
	<g>
		<path class="st6" d="M293.16,90.56c1.87-0.02,3.75-0.03,5.63-0.05c-0.19,1.06-0.39,2.12-0.6,3.19
			c-11.35,8.9-20.41,20.28-28.64,32.05c-0.56-0.03-1.7-0.09-2.27-0.12c2.5-5.22,4.39-10.78,7.87-15.47
			C280.09,102.7,287.03,96.97,293.16,90.56z"/>
	</g>
	<g>
		<path class="st7" d="M198.65,93.77c0.94-0.15,1.89-0.3,2.83-0.45c0.46-0.06,1.38-0.17,1.84-0.23
			c12.11,12.5,21.71,27.66,26.48,44.48c-0.44-0.11-1.31-0.33-1.75-0.43c-7.37-14.89-17.21-28.54-29.35-39.88
			C198.68,96.09,198.66,94.93,198.65,93.77z"/>
	</g>
	<g>
		<path class="st8" d="M147.62,94.56c5.2-0.43,10.06,2.08,14.66,4.18c-3.36,0-6.62,0.91-9.47,2.65c2.04,1.2,4.1,2.4,6.19,3.52
			c-4.88-1.15-10.93-1.39-13.99-5.98C143.28,97.11,145.56,94.58,147.62,94.56z"/>
	</g>
	<g>
		<path class="st9" d="M236.36,94.27c1.16,0.48,2.31,0.96,3.48,1.44l0.45,0.18c1.41,5.29,2.71,10.64,3.36,16.08
			c0.27,9.32,0.84,19.03-2.97,27.8c-1.44,3.16-3.65,6.72-7.49,7.05c2.1-6.86,5.04-13.55,5.44-20.81c0.17-9.1,0.89-18.68-3.14-27.14
			l0.1-0.56C235.84,96.96,236.1,95.61,236.36,94.27z"/>
	</g>
	<g>
		<path class="st10" d="M382.59,97.49c1.41-0.03,2.82-0.06,4.24-0.1c1.07,1.53,2.09,3.09,3.07,4.68c-1.7,2.42-4.12,3.94-7.17,3.61
			c-0.69-1.17-1.42-2.33-1.98-3.58C380.47,100.34,381.92,98.99,382.59,97.49z"/>
	</g>
	<g>
		<path class="st11" d="M152.81,101.39c2.85-1.74,6.11-2.65,9.47-2.65c5.25,2.08,10.35,4.68,14.93,8.02
			c-2.52-0.27-5.05-0.31-7.58-0.37c-0.02,0.94-0.04,1.89-0.05,2.84c-3.61-1.24-7.22-2.51-10.58-4.32
			C156.91,103.79,154.85,102.59,152.81,101.39z"/>
	</g>
	<g>
		<path class="st12" d="M328.69,102.06c6.17-2.2,12.82-1.99,19.27-1.74c5.57,0.32,11.13,2.63,14.61,7.12c0,1.07,0,2.14,0.01,3.21
			c-0.66,0.64-1.32,1.29-1.98,1.93c-4.8-0.21-9.53-1.48-14.36-0.86c1.29-0.49,2.55-1.04,3.82-1.58c-6.21-3.93-13.31-6.03-20.37-7.84
			L328.69,102.06z"/>
	</g>
	<g>
		<path class="st13" d="M317.83,106.35c3.67-1.99,7.61-3.94,11.86-4.05c7.06,1.81,14.16,3.91,20.37,7.84
			c-1.27,0.54-2.53,1.09-3.82,1.58c-3.38,0.87-7.04,2-10.49,1.62C330.61,109.36,324.35,106.77,317.83,106.35z"/>
	</g>
	<g>
		<path class="st14" d="M169.63,106.39c2.53,0.06,5.06,0.1,7.58,0.37c10.98,6.65,20.41,15.61,28.45,25.58
			c1.13,1.39,1.83,3.06,2.39,4.74c-2.73-1.12-4.83-3.21-6.81-5.32c-8.96-9.46-19.94-16.93-31.66-22.53
			C169.59,108.28,169.61,107.33,169.63,106.39z"/>
	</g>
	<g>
		<path class="st15" d="M317.83,106.35c6.52,0.42,12.78,3.01,17.92,6.99c-4.71,1.96-9.73,3.13-14.3,5.42
			c-13.57,5.94-25.92,14.72-35.92,25.65l-0.36-0.3c-1.4-1.15-2.82-2.28-4.25-3.39l-0.72-0.57c8.85-14.47,21.96-25.94,36.86-33.88
			L317.83,106.35z"/>
		<path class="st15" d="M107.38,258.63c12.33-13.08,26.09-25.19,42.01-33.67c0.73,1.62,1.45,3.25,2.03,4.94l-0.01,1.03
			c-2.48,2.9-5.93,5.07-8.45,8.06c-9.06,8.64-16.44,18.83-23.97,28.74c-1.35,1.03-2.76,2.01-4.15,2.99
			C112.34,266.7,109.5,262.88,107.38,258.63z"/>
	</g>
	<g>
		<path class="st16" d="M199.33,118c0.41-0.59,1.22-1.77,1.62-2.37c0.85-0.04,2.53-0.13,3.38-0.17c2.03,1.8,4,3.68,6.02,5.5
			c0.07,0.23,0.22,0.7,0.29,0.93c0.98,3.3,2.11,6.57,3.5,9.73c-1.43-1.57-3-3.01-4.73-4.25c-0.1-0.08-0.3-0.23-0.4-0.31
			C206.06,123.76,202.94,120.59,199.33,118z"/>
	</g>
	<g>
		<path class="st17" d="M255.37,124.8c2.44-3.84,6.35-7.5,11.29-6.44c-0.11,1.76,0.47,3.93-1.16,5.17
			c-3.59,3.39-7.03,6.94-9.51,11.24c-1.83,1.4-3.87,2.48-5.94,3.48C251.14,133.52,253.19,129.1,255.37,124.8z"/>
	</g>
	<g>
		<path class="st18" d="M210.64,121.89c5.35,6.04,7.92,14.21,9.14,22.07c-0.2,1.35-0.41,2.71-0.63,4.07
			c-0.32-0.37-0.96-1.13-1.28-1.51c-1.38-3.2-2.24-6.62-3.76-9.77c-1.37-3.23-3.76-5.95-4.7-9.38c1.73,1.24,3.3,2.68,4.73,4.25
			C212.75,128.46,211.62,125.19,210.64,121.89z"/>
	</g>
	<g>
		<path class="st19" d="M247.52,137.62c2.05-4.55,3.79-9.63,7.85-12.82c-2.18,4.3-4.23,8.72-5.32,13.45c2.07-1,4.11-2.08,5.94-3.48
			c-1.96,5.39-5.09,10.46-9.1,14.58C244.31,145.75,246.27,141.33,247.52,137.62z"/>
	</g>
	<g>
		<path class="st20" d="M124.62,130.44c2.68-4.1,7.93-4.57,12.37-4.91c7.42-0.16,15.07-0.51,22.18,1.98
			c-3.05,0.04-6.13,0.16-9.15,0.65c-3.13,0.41-5.5,2.67-7.96,4.44c3.09,0.41,6.17,0.9,9.21,1.62c-5.08-0.09-10.2-0.26-15.22,0.62
			c-3.85,0.52-7.56,1.98-11.49,1.9C124.21,134.68,122.71,132.15,124.62,130.44z"/>
	</g>
	<g>
		<path class="st21" d="M142.06,132.6c2.46-1.77,4.83-4.03,7.96-4.44c3.02-0.49,6.1-0.61,9.15-0.65c8.44,1.27,16.4,4.69,24.1,8.25
			c10.35,5.26,20.41,12.41,25.64,23.12c-2.94-0.02-3.86-3.32-6.01-4.77c-14.58-11.86-33.19-17.73-51.63-19.89
			C148.23,133.5,145.15,133.01,142.06,132.6z"/>
	</g>
	<g>
		<path class="st22" d="M359.48,132.2c5.24-2.58,11.25-3.02,17.01-2.83c0.98,1.5,1.97,3.01,2.96,4.51c-0.34,0.4-1,1.22-1.33,1.62
			c-7.29-0.89-14.55-0.08-21.84-0.08C357.07,134.1,357.96,132.75,359.48,132.2z"/>
	</g>
	<g>
		<path class="st23" d="M376.49,129.37c8.35-0.18,16.96,0.47,24.88,3.26c2.68,2.26,4.84,5.04,6.75,7.96
			c-1.54,0.4-3.07,0.81-4.61,1.16c-2.45-0.09-4.73-1.08-7.03-1.83c-5.94-2.16-12.22-3.04-18.36-4.42c0.33-0.4,0.99-1.22,1.33-1.62
			C378.46,132.38,377.47,130.87,376.49,129.37z"/>
	</g>
	<g>
		<path class="st24" d="M401.37,132.63c9.5,1.96,18.53,6.17,26.4,11.82c3.17,2.15,5.48,5.25,7.7,8.31c0.01,0.87,0.04,2.6,0.05,3.46
			c-0.63,0.86-1.25,1.73-1.87,2.59c-4.58,0.51-7.23-3.6-10.64-5.83c-6.17-4.73-13.25-7.96-20.34-11.04l0.84-0.19
			c1.54-0.35,3.07-0.76,4.61-1.16C406.21,137.67,404.05,134.89,401.37,132.63z"/>
	</g>
	<g>
		<path class="st25" d="M114.48,142.44c10.32-3.65,21.49-5.79,32.47-4.59c3.29,0.69,7.39,1.06,8.94,4.58
			c-3.88,0.2-7.7-0.88-11.57-0.47c-5.1,0.59-10.34,0.28-15.3,1.83c-5.4,1.16-10.51,3.22-15.7,5.02c-2.09,0.42-4.2,0.73-6.3,1.03
			C109.38,147.26,111.81,144.71,114.48,142.44z"/>
	</g>
	<g>
		<path class="st26" d="M280.16,140.12l0.76,0.6c1.43,1.11,2.85,2.24,4.25,3.39c-3.56,4.47-7.36,8.74-10.63,13.43
			c-0.52-0.08-1.55-0.24-2.07-0.32C274.24,151.19,277.11,145.59,280.16,140.12z"/>
	</g>
	<g>
		<path class="st27" d="M314.79,141.6c5.54-1.82,11.46-1.48,17.2-1.23c4.35,0.33,9.61,2.85,9.92,7.77
			c-0.69,0.31-2.09,0.92-2.79,1.23c-5.65-1.92-11.68-0.77-17.5-0.58c-4.13,0.47-7.53-1.82-10.34-4.54c0.97-0.69,1.88-1.43,2.83-2.15
			L314.79,141.6z"/>
	</g>
	<g>
		<path class="st28" d="M297.32,150.99c4.96-3.89,10.58-7.43,16.79-8.89c-0.95,0.72-1.86,1.46-2.83,2.15
			c2.81,2.72,6.21,5.01,10.34,4.54c-4.34,1.96-9.12,2.68-13.41,4.77c-4.6,1.93-8.69,4.83-13.11,7.1c-2.15,0.69-4.34,1.25-6.53,1.78
			C290.69,158.06,294.02,154.49,297.32,150.99z"/>
	</g>
	<g>
		<path class="st29" d="M109.66,143.72c1.53-0.67,3.18-0.98,4.82-1.28c-2.67,2.27-5.1,4.82-7.46,7.4c2.1-0.3,4.21-0.61,6.3-1.03
			c-4.24,3.01-9.12,5.02-13.14,8.36c-2.71,1.9-4.59,4.66-6.81,7.06c-1.3,0.4-2.68,0.39-4.02,0.56c0.14-2.69-0.42-5.77,1.54-7.98
			C95.21,150.16,102.68,146.84,109.66,143.72z"/>
	</g>
	<g>
		<path class="st30" d="M219.78,143.96l0.22-1.26c0.92,6.42,1.53,13.42-1.57,19.37c0.48-5.2-0.38-10.36-0.56-15.55
			c0.32,0.38,0.96,1.14,1.28,1.51C219.37,146.67,219.58,145.31,219.78,143.96z"/>
	</g>
	<g>
		<path class="st31" d="M230.08,150.08c1.81,0.06,3.92,0.28,4.76,2.17c3.4,4.65,3.09,10.69,2.52,16.13
			c-2.47-3.74-2.12-8.54-4.46-12.33C231.81,154.13,230.84,152.15,230.08,150.08z"/>
	</g>
	<g>
		<path class="st32" d="M293.48,153.45c1.09-1.08,2.47-1.79,3.84-2.46c-3.3,3.5-6.63,7.07-8.75,11.45c2.19-0.53,4.38-1.09,6.53-1.78
			c-4.22,4.32-9.52,7.51-13.14,12.45c-0.43,0.01-1.29,0.04-1.72,0.06l-1.17,0.06C282.3,165.64,287.55,159.1,293.48,153.45z"/>
	</g>
	<g>
		<path class="st33" d="M370.39,154.49c8.66-0.7,17.42,0.62,25.39,4.08c4.99,3.58,8.69,9.14,8.69,15.44
			c-7.86-5.02-15.59-10.36-24.2-14.05c-3.23-1.25-6.51-2.37-9.73-3.64C370.5,155.86,370.43,154.94,370.39,154.49z"/>
	</g>
	<g>
		<path class="st34" d="M124.7,157.49c3.84-1.21,7.9-1.14,11.88-1.07c0.03,0.53,0.1,1.58,0.14,2.11
			c-14.86,1.4-28.52,8.54-40.17,17.54c-2.48,1.7-4.98,3.36-7.58,4.87c1.61-3.87,4.49-6.96,7.21-10.07
			C104.28,164.03,114.58,160.27,124.7,157.49z"/>
	</g>
	<g>
		<path class="st35" d="M138.41,160.71c6.62-2.42,13.78-2.76,20.74-2.03c-0.55,0.16-1.66,0.48-2.22,0.65
			c0.99,0.52,1.99,1.05,2.98,1.58c-2.07,1.63-4.03,3.79-6.81,4.05c-3.99,0.6-8.03,0.4-12.04,0.48c-0.65-0.33-1.95-1-2.6-1.33
			C138.45,163.26,138.42,161.56,138.41,160.71z"/>
	</g>
	<g>
		<path class="st36" d="M256.46,167.86c2.96-4.63,7.2-8.96,12.73-10.25c0.88,0.53,1.09,1.61,1.55,2.45
			c-6.06,2.67-10.67,7.5-14.84,12.5c-0.4,0.42-1.21,1.26-1.62,1.67C254.94,172.09,255.64,169.95,256.46,167.86z"/>
	</g>
	<g>
		<path class="st37" d="M156.93,159.33c0.56-0.17,1.67-0.49,2.22-0.65c2.82-0.19,5.64,0.42,8.38,1.03c2.61,1.39,5.1,2.99,7.6,4.59
			c-10.71,1.79-21.62,1.94-32.44,1.26c-0.41-0.03-1.22-0.09-1.63-0.12c4.01-0.08,8.05,0.12,12.04-0.48
			c2.78-0.26,4.74-2.42,6.81-4.05C158.92,160.38,157.92,159.85,156.93,159.33z"/>
	</g>
	<g>
		<path class="st38" d="M395.78,158.57c6.12,1.76,12.05,4.67,17.01,8.67c4.92,5.12,5.44,12.51,8.67,18.56
			c-1.22,0.26-2.42,0.52-3.63,0.78c-3.63-3.47-6.94-7.32-11.14-10.14c-0.76-0.76-2.14-1.23-2.22-2.43
			C404.47,167.71,400.77,162.15,395.78,158.57z"/>
	</g>
	<g>
		<path class="st39" d="M167.53,159.71c5.65,0.68,11,2.78,15.99,5.46c5.01,2.48,10.09,5.69,12.65,10.88
			c-5.02-3.14-10.16-6.43-16.09-7.47c-6.93-1.18-14.01-2.29-21.04-1.31c-5.43,0.04-11.3,0.62-16.35-1.71
			c10.82,0.68,21.73,0.53,32.44-1.26C172.63,162.7,170.14,161.1,167.53,159.71z"/>
	</g>
	<g>
		<path class="st40" d="M201,165.33c9.49-1.08,18.52,3.69,24.97,10.35c-6.76-4.41-15.07-4.44-22.49-6.94
			C201.71,168.5,201.47,166.71,201,165.33z"/>
	</g>
	<g>
		<path class="st41" d="M252.03,179.98c-0.87-4.24,0.71-9.61,4.43-12.12c-0.82,2.09-1.52,4.23-2.18,6.37
			c0.41-0.41,1.22-1.25,1.62-1.67C255.11,175.08,255.16,179.26,252.03,179.98z"/>
	</g>
	<g>
		<path class="st42" d="M412.79,167.24c4.47,1.82,8.1,5.11,11.65,8.29c4.61,4.34,9.3,9.18,11,15.45c-0.25,3.3-4.12,6.92-7.46,5.02
			c-4.09-2.27-6.76-6.3-10.15-9.42c1.21-0.26,2.41-0.52,3.63-0.78C418.23,179.75,417.71,172.36,412.79,167.24z"/>
	</g>
	<g>
		<path class="st43" d="M320.02,170.58c2.58-0.37,5.16-0.82,7.76-1.04c1.87,2.71,3.74,5.42,5.6,8.15c-2.57,0.38-5.15,0.73-7.75,0.77
			C323.89,175.73,322.02,173.11,320.02,170.58z"/>
	</g>
	<g>
		<path class="st44" d="M327.78,169.54c14.59-0.53,29.15,2.39,42.7,7.73c5.13,1.87,9.91,4.55,14.93,6.69l0.08,0.31
			c1.03,3.45,1.24,7.07,1.1,10.66c-2.09-0.44-4.19-0.86-6.25-1.41c-5.02-2.11-9.67-5.05-14.84-6.82
			c-8.93-3.08-18.08-5.99-27.55-6.64c-7.3-1.3-14.74-0.56-22.11-0.61c3.06-1.4,6.53-0.9,9.79-0.99c2.6-0.04,5.18-0.39,7.75-0.77
			C331.52,174.96,329.65,172.25,327.78,169.54z"/>
	</g>
	<g>
		<path class="st45" d="M83.96,180.95c3.59-3.86,7.34-7.85,12.22-10.08c-2.72,3.11-5.6,6.2-7.21,10.07c2.6-1.51,5.1-3.17,7.58-4.87
			c-3.73,4.42-8.21,8.35-10.68,13.69c-1.23,2.11-1.92,5.29-4.8,5.67c-1.3-0.31-2.58-0.66-3.85-1.07
			C77.35,189.09,80.77,184.83,83.96,180.95z"/>
	</g>
	<g>
		<path class="st46" d="M303.47,179.55c4.14-5.01,10.26-7.78,16.55-8.97c2,2.53,3.87,5.15,5.61,7.88c-3.26,0.09-6.73-0.41-9.79,0.99
			l-1.2,0.6c-3.86,0.37-7.7,0.9-11.44,1.91C303.26,181.36,303.4,180.16,303.47,179.55z"/>
	</g>
	<g>
		<path class="st47" d="M258.9,185.65c4.83-6.39,11.88-11.98,20.17-12.42l1.17-0.06c-2.49,0.87-4.87,2.02-7.21,3.21
			c6.81,1.51,13.96,0.43,20.66,2.71c-0.81-1.46-1.59-2.94-2.44-4.37c2.46,0.9,3.06,3.25,2.91,5.65c-4.69-0.87-9.36-2.47-14.19-1.82
			C272.47,179.15,265.36,181.87,258.9,185.65z"/>
	</g>
	<g>
		<path class="st48" d="M280.24,173.17c0.43-0.02,1.29-0.05,1.72-0.06c3.13,0.07,6.46,0.07,9.29,1.61c0.85,1.43,1.63,2.91,2.44,4.37
			c-6.7-2.28-13.85-1.2-20.66-2.71C275.37,175.19,277.75,174.04,280.24,173.17z"/>
	</g>
	<g>
		<path class="st49" d="M181.8,181.36c3.58-2.37,7.97-2.86,12.15-3.07c6.51-0.21,13.14-0.14,19.44,1.72
			c5.1,1.16,9.59,3.98,14.52,5.62c-9.06-1.13-18.11-2.44-27.28-1.92c3.7-1.26,7.55-1.98,11.45-2.29c-4.64-0.92-9.28-2.01-14.03-2.1
			C192.55,179.15,187.19,180.53,181.8,181.36z"/>
	</g>
	<g>
		<path class="st50" d="M181.8,181.36c5.39-0.83,10.75-2.21,16.25-2.04c4.75,0.09,9.39,1.18,14.03,2.1
			c-3.9,0.31-7.75,1.03-11.45,2.29c-7.14,2-14.64,1.97-21.99,1.59c-0.12-0.62-0.35-1.86-0.47-2.48
			C179.36,182.29,180.53,181.68,181.8,181.36z"/>
		<path class="st50" d="M250.44,218.63c2.59,6.56,1.72,13.72,1.87,20.6c-0.58,3.43-0.17,8.1-3.2,10.38
			c-0.61-0.09-1.84-0.28-2.45-0.37c-0.8-7.57,0.46-15.16,1.07-22.69C248.48,223.86,249.44,221.23,250.44,218.63z"/>
	</g>
	<g>
		<path class="st51" d="M102.81,198.16c14.8-10.95,32.76-18.02,51.24-18.89c4.18-0.16,8.24,0.96,12.36,1.51
			c0.11,0.51,0.35,1.52,0.46,2.02c-16.07-1.38-31.06,6.43-43.9,15.29c-7.72,5.81-14.69,12.88-23.6,16.92
			C97.8,209.25,99.61,203.04,102.81,198.16z"/>
		<path class="st51" d="M338.23,227.96c0.78-1.96,1.65-3.89,2.53-5.81c11.11,7.72,20.79,17.42,28.71,28.37
			c2.42,3.48,4.55,7.16,7.08,10.57l0.04,0.7c0.05,2.45,0.49,5.02-0.26,7.41c-1.21,2.29-3.91,3.04-6.03,4.21
			c-4.75-12.21-12.07-23.29-20.43-33.32C346.3,235.76,341.89,232.21,338.23,227.96z"/>
		<path class="st51" d="M164.02,256.48l0.48,0.35c1.86,1.37,3.74,2.73,5.62,4.07l0.37,0.26c-7.85,10.27-13.5,21.94-18.78,33.66
			c-1.53,2.41-3.08,4.81-4.56,7.26c-1.58-1.34-4.52-1.92-4.61-4.36c-0.16-1.29-0.24-2.58-0.23-3.87
			C147.43,280.29,155.47,268.09,164.02,256.48z"/>
	</g>
	<g>
		<path class="st52" d="M385.49,184.27c5.63,2.72,10.92,6.24,15.78,10.14c2.73,4.94,0.48,10.43,0.14,15.63
			c-3.66-3.16-6.84-6.86-10.82-9.63c-3.35-2.4-6.99-4.37-10.25-6.89c2.06,0.55,4.16,0.97,6.25,1.41
			C386.73,191.34,386.52,187.72,385.49,184.27z"/>
	</g>
	<g>
		<path class="st53" d="M209.4,190.53c3.87-1.19,7.97-2.27,12.02-1.36c-3.65,2.28-7.59,4.39-11.98,4.61
			c0.34-0.38,1.01-1.14,1.34-1.52c-1.96,0.44-3.93,0.87-5.88,1.37C205.72,191.8,207.63,191.1,209.4,190.53z"/>
	</g>
	<g>
		<path class="st54" d="M261.8,189.77c5.89-0.52,13.18-1.5,17.52,3.51c-3.15-0.97-6.38-1.6-9.62-2.08c1.87,1.29,3.76,2.56,5.71,3.75
			c-4.76-0.6-9.2-2.79-14.06-2.67C261.5,191.44,261.64,190.6,261.8,189.77z"/>
	</g>
	<g>
		<path class="st55" d="M269.7,191.2c3.24,0.48,6.47,1.11,9.62,2.08c3.15,1.29,5.89,3.38,8.53,5.49l0.31,0.24
			c4.36,3.82,8.38,8.55,9.46,14.42c-1.28,0.07-2.55,0.15-3.82,0.22c-3.07-8.63-10.36-14.8-18.39-18.7
			C273.46,193.76,271.57,192.49,269.7,191.2z"/>
	</g>
	<g>
		<path class="st56" d="M204.9,193.63c1.95-0.5,3.92-0.93,5.88-1.37c-0.33,0.38-1,1.14-1.34,1.52l-0.3,0.33
			c-4.47,1.93-8.57,4.66-12.16,7.93c-3.14,2.85-5.34,6.52-8.32,9.51c-0.69,0-2.07,0-2.76,0c0.58-2.37,1.5-4.68,3.18-6.49
			C193.25,199.96,198.67,195.85,204.9,193.63z"/>
	</g>
	<g>
		<path class="st57" d="M299.39,193.43c7.62-1.73,15.67-2.1,23.3-0.19c1.6,0.3,3.08,1.03,4.39,2.01c-4.14-1.09-8.44-1.21-12.7-1.21
			c0.78,2.27,1.76,4.55,3.66,6.13c-7.95-0.97-16.11-1.99-24.02-0.21c-2,0.58-4.18,0.33-5.86-0.95l-0.31-0.24
			C291.64,196.88,295.19,194.36,299.39,193.43z"/>
	</g>
	<g>
		<path class="st58" d="M155.67,197.12c4.15-2.75,9.3-2.44,14.04-3.02c0.02,1.17,0.05,2.35,0.07,3.53
			c-6.34,2.92-11.33,8.28-18.04,10.39c3.59-3.1,9.15-5.38,9.15-10.89C159.15,197.11,157.41,197.08,155.67,197.12z"/>
	</g>
	<g>
		<path class="st59" d="M314.38,194.04c4.26,0,8.56,0.12,12.7,1.21c0.31,0.1,0.93,0.3,1.24,0.39c-1.11,1.43-2.22,2.86-3.34,4.28
			c2.54,1.41,5.06,2.87,7.58,4.31c-4.94-0.98-9.7-2.64-14.52-4.06C316.14,198.59,315.16,196.31,314.38,194.04z"/>
	</g>
	<g>
		<path class="st60" d="M226.32,197.36c2.49-1.42,5.29-2.09,8.14-2.25c-3.01,2.84-6.67,4.85-9.74,7.62
			c-2.38,2.11-4.66,4.35-7.28,6.19c1.75-2.89,3.9-5.52,6.39-7.8c-1.99,0.81-3.99,1.57-5.96,2.42
			C219.71,200.38,223.28,199.05,226.32,197.36z"/>
	</g>
	<g>
		<path class="st61" d="M401.27,194.41c6.61,5.17,12.69,11.21,16.84,18.57c1.12,2.45,1.11,6.13-1.49,7.66
			c-2.41,1.5-5.3,0.33-7.85-0.1c-2.08-3.66-4.37-7.24-7.4-10.18l0.04-0.32C401.75,204.84,404,199.35,401.27,194.41z"/>
	</g>
	<g>
		<path class="st62" d="M238.64,199.5c0.94-1.74,2.62-2.83,4.3-3.76c-0.92,5.22-2.95,10.16-4.01,15.36
			c-0.71,3.62-1.94,7.14-3.95,10.25c0.39-2.85,0.61-5.73,0.83-8.6c-1.64,0.65-3.27,1.3-4.9,1.96
			C232.99,209.4,235.71,204.37,238.64,199.5z"/>
	</g>
	<g>
		<g>
			<path class="st63" d="M250.23,195.7c2.59,3.9,2.97,8.69,3.46,13.22c0.77,9.02,0.64,18.09,0.16,27.12
				c-0.39,4.24-0.59,8.62-2.14,12.63c-0.54,2.09-3.03,2.27-4.79,1.92c-2.48-2.18-1.47-5.77-1.42-8.64
				c0.5-11.68,1.42-23.34,2.8-34.94C248.54,203.18,248.46,199.22,250.23,195.7z M249.78,209.45c-1.35,5.58-2.35,11.33-2.05,17.1
				c-0.61,7.53-1.87,15.12-1.07,22.69c0.61,0.09,1.84,0.28,2.45,0.37c3.03-2.28,2.62-6.95,3.2-10.38
				c1.48-5.64,0.94-11.49,1.05-17.25c-0.02-4.91-0.14-9.99-2.04-14.6C250.09,207.1,250.17,208.7,249.78,209.45z"/>
		</g>
	</g>
	<g>
		<path class="st64" d="M256.97,195.9c5.07,0.7,8.48,4.8,11.9,8.18c1.57,1.46,2.7,3.3,3.04,5.44c-1.24-1.2-2.53-2.33-3.82-3.46
			c0.38,1.38,0.77,2.76,1.2,4.14C264.92,205.67,261.31,200.46,256.97,195.9z"/>
	</g>
	<g>
		<path class="st65" d="M328.32,195.64c8.38,2.78,17.29,5.48,23.95,11.55c-2.35-0.82-4.74-1.51-7.13-2.18
			c0.38,2.03-0.13,4.65,1.81,6.03c3.5,2.98,7.23,5.84,9.55,9.92c-3.08-2.02-5.55-4.77-8.37-7.1c-4.76-3.85-10.15-6.81-15.57-9.63
			c-2.52-1.44-5.04-2.9-7.58-4.31C326.1,198.5,327.21,197.07,328.32,195.64z"/>
	</g>
	<g>
		<path class="st66" d="M140.76,203.15c4.38-3.19,9.72-4.72,14.91-6.03c1.74-0.04,3.48-0.01,5.22,0.01c0,5.51-5.56,7.79-9.15,10.89
			c-1.18,0.83-2.45,1.5-3.71,2.18c2.33-2.51,2.89-5.9,2.97-9.19C147.57,201.63,144.13,202.27,140.76,203.15z"/>
	</g>
	<g>
		<path class="st67" d="M86.36,214.8c4.45-6.42,9.96-12.27,16.45-16.64c-3.2,4.88-5.01,11.09-3.44,16.85l0.12,0.55
			c-4,1.8-8.62,5.24-13.06,2.92C86.41,217.56,86.37,215.72,86.36,214.8z"/>
	</g>
	<g>
		<path class="st68" d="M140.76,203.15c3.37-0.88,6.81-1.52,10.24-2.14c-0.08,3.29-0.64,6.68-2.97,9.19
			c-5.77,4.23-10.78,9.6-17.12,12.99c1.94-2.19,3.98-4.42,5.03-7.19c0.88-2.85,0.61-5.88,0.64-8.82c-1.61,0.33-3.22,0.65-4.81,1.04
			C134.32,205.85,137.43,204.14,140.76,203.15z"/>
	</g>
	<g>
		<path class="st69" d="M217.87,203.54c1.97-0.85,3.97-1.61,5.96-2.42c-2.49,2.28-4.64,4.91-6.39,7.8
			c-4.95,6.14-7.64,13.81-12.9,19.71c-1.19,1.64-3.2,1.82-5.04,2.06c-0.12-2.79-0.46-5.76,1.06-8.27c0.8-1.21,1.14-3.55,3.15-2.99
			c0.17-1.06,0.34-2.11,0.51-3.16C208.4,211.66,212.76,207.13,217.87,203.54z"/>
	</g>
	<g>
		<path class="st70" d="M345.14,205.01c2.39,0.67,4.78,1.36,7.13,2.18c5.95,3.67,11.21,8.73,14.72,14.81c0.95,1.5,0.3,3.33,0.3,4.99
			c-1.11,0.41-2.2,0.84-3.29,1.28c-1.27-0.44-2.54-0.86-3.8-1.28c-1.18-2.04-2.39-4.07-3.7-6.03c-2.32-4.08-6.05-6.94-9.55-9.92
			C345.01,209.66,345.52,207.04,345.14,205.01z"/>
	</g>
	<g>
		<path class="st71" d="M268.09,206.06c1.29,1.13,2.58,2.26,3.82,3.46c5.53,7.18,7.9,16.62,6.33,25.57
			c-0.49,0.34-1.47,1.01-1.96,1.34c2.32-6.49,0.89-13.33-1.73-19.48c0.04,4.1,0.12,8.28-1.24,12.21
			c-0.32-6.52-1.34-12.97-4.02-18.96C268.86,208.82,268.47,207.44,268.09,206.06z"/>
	</g>
	<g>
		<path class="st72" d="M131.77,208.22c1.59-0.39,3.2-0.71,4.81-1.04c-0.03,2.94,0.24,5.97-0.64,8.82c-1.05,2.77-3.09,5-5.03,7.19
			c-5.5,4.55-11.54,8.5-17.85,11.86c-2.66,1.58-5.77,1.79-8.78,1.54c-0.06-2.37,0.64-4.63,2.23-6.4
			C113.34,221.31,121.91,213.58,131.77,208.22z"/>
		<path class="st72" d="M274.54,302.18c2.9-1.45,5.99-2.5,9.18-3.07l0.51-0.11c0.33,6.41,2.4,12.6,2.44,19.03
			c0.2,6.39,0.36,12.8-0.23,19.17c-2.78,1.51-5.87,1.64-8.59-0.1c-1.41-3.89-2.19-7.95-2.58-12.06c-0.42-4.57-1.89-9.04-1.72-13.65
			C273.92,308.32,274.29,305.26,274.54,302.18z"/>
	</g>
	<g>
		<path class="st73" d="M249.78,209.45c0.39-0.75,0.31-2.35,1.54-2.07c1.9,4.61,2.02,9.69,2.04,14.6
			c-0.11,5.76,0.43,11.61-1.05,17.25c-0.15-6.88,0.72-14.04-1.87-20.6c-1,2.6-1.96,5.23-2.71,7.92
			C247.43,220.78,248.43,215.03,249.78,209.45z"/>
	</g>
	<g>
		<path class="st74" d="M318.5,211.27c7.9,2.55,15.3,6.37,22.26,10.88c-0.88,1.92-1.75,3.85-2.53,5.81
			c-6.06-5.58-12.71-10.51-19.68-14.91C318.53,212.61,318.51,211.72,318.5,211.27z"/>
	</g>
	<g>
		<path class="st75" d="M230.91,214.71c1.63-0.66,3.26-1.31,4.9-1.96c-0.22,2.87-0.44,5.75-0.83,8.6c-0.22,1.86-0.84,3.67-2.17,5.03
			c-0.14-1.22-0.29-2.45-0.45-3.67c-0.96-0.1-1.92-0.21-2.88-0.31c-3.73,7.61-6.68,15.76-6.61,24.36c-0.45-1.31-1.37-2.55-1.21-3.99
			C222.7,232.83,227.75,224.02,230.91,214.71z"/>
	</g>
	<g>
		<path class="st76" d="M149.25,224.63c6.75-3.63,13.52-7.38,20.79-9.9c0.84-0.07,2.52-0.22,3.35-0.29
			c-4.33,4.49-10.28,6.94-15.04,10.95c-2.27,1.46-3.95,3.71-6.33,4.99l-0.6-0.48c-0.58-1.69-1.3-3.32-2.03-4.94L149.25,224.63z"/>
	</g>
	<g>
		<path class="st77" d="M166.05,229.02c9.47-6.05,19.75-11.22,30.88-13.26c2.37-0.35,5.1-0.98,7.13,0.76
			c-2.58,2.95-6.69,2.99-10.15,4.17c-9.18,2.99-17.49,8.17-25.01,14.14c-3.12,2.4-5.61,5.61-9.19,7.38c1.93-2.61,4.12-5.01,6.41-7.3
			c-1.86-0.44-3.73-0.89-5.61-1.25C162.16,231.9,163.99,230.29,166.05,229.02z"/>
	</g>
	<g>
		<path class="st78" d="M273.31,229.16c1.36-3.93,1.28-8.11,1.24-12.21c2.62,6.15,4.05,12.99,1.73,19.48
			c-1.34-0.43-2.68-0.86-4.02-1.28C272.38,233.11,272.64,231.09,273.31,229.16z"/>
	</g>
	<g>
		<path class="st79" d="M95.77,219.63c1.64-1.08,3.64-1.22,5.52-1.56c-2.73,3.98-4.92,8.3-6.26,12.94
			c-2.79,9.18-8.87,17.14-16.3,23.09c-0.42-7.27-1.33-14.9,1.79-21.75C84.74,227.21,90.09,223.05,95.77,219.63z"/>
	</g>
	<g>
		<path class="st80" d="M389.21,221.19c4.84,0.87,8.61,4.28,12.26,7.33c3.73,3.46,7.64,6.89,10.37,11.23
			c2.36,4.11,4.17,8.61,3.92,13.44c-1.97-2.04-3.93-4.08-5.8-6.2c-4.57-6.05-8.68-12.57-14.52-17.53
			C392.95,227.02,388.77,225.34,389.21,221.19z"/>
	</g>
	<g>
		<path class="st81" d="M229.48,222.4c0.96,0.1,1.92,0.21,2.88,0.31c0.16,1.22,0.31,2.45,0.45,3.67
			c-1.17,6.11-3.31,12.06-5.55,17.85c-0.55,2-2.7,2.16-4.39,2.53C222.8,238.16,225.75,230.01,229.48,222.4z"/>
	</g>
	<g>
		<path class="st82" d="M288.06,223.34c7.84,1.29,14.99,4.95,21.86,8.79l-0.38,0.66c-0.47,0.82-0.94,1.65-1.4,2.48
			c3.62,3.76,7.7,7.18,10.26,11.81c-5.8-5.05-10.94-10.85-17.27-15.3C297.01,228.6,292.21,226.47,288.06,223.34z"/>
	</g>
	<g>
		<path class="st83" d="M434.47,224.5c1.64,0.01,3.29,0.04,4.94,0.09c-0.03,1.89-0.06,3.78-0.11,5.68
			c-1.58,0.02-3.16,0.04-4.74,0.06C434.49,228.39,434.46,226.44,434.47,224.5z"/>
	</g>
	<g>
		<path class="st84" d="M445.66,224.5c1.67-0.34,3.93-0.55,4.76,1.36c0.96,2-1.26,3.39-2.25,4.79c-1.2-0.55-2.4-1.09-3.6-1.63
			C444.7,227.47,443.91,225.39,445.66,224.5z"/>
	</g>
	<g>
		<path class="st85" d="M215.17,228.16c1.94-0.73,4.63-2.29,6.21-0.14c-4.49,6.23-11.36,10.2-16.13,16.21
			c-4.75,5.01-7.92,11.17-12.02,16.66c-0.14-1.69,0.71-4.07-1.29-4.91c-1.54-0.61-3.24-0.38-4.84-0.43l-1.31,0.03
			c2.66-4.18,6.59-7.26,9.97-10.81C201.85,238.85,207.47,232.09,215.17,228.16z"/>
	</g>
	<g>
		<path class="st86" d="M376.25,234.74c-1.1-1.01-0.8-2.53-0.85-3.85c10.19,5.96,16.98,16.26,21.96,26.7
			c-0.79,3.61-1.39,7.35-3.12,10.66l-1.15,0.8C390.24,256.54,384.59,244.55,376.25,234.74z"/>
	</g>
	<g>
		<path class="st87" d="M70.93,253.77c0.68-7.94,3.84-15.79,9.59-21.42c-3.12,6.85-2.21,14.48-1.79,21.75
			c-1.28,2.49-4.44,3.05-6.91,3.75C71.52,256.49,71.23,255.13,70.93,253.77z"/>
	</g>
	<g>
		<path class="st88" d="M144.15,250.66c4.16-6.77,10.35-11.94,16.36-17c1.88,0.36,3.75,0.81,5.61,1.25
			c-2.29,2.29-4.48,4.69-6.41,7.3c-2.71,3.43-5.76,6.58-8.29,10.16c-1.61,2.23-2.87,4.77-4.98,6.61c0.87-3.13,1.62-6.28,2.5-9.4
			C147.34,249.94,145.75,250.3,144.15,250.66z"/>
	</g>
	<g>
		<path class="st89" d="M171.07,248.78c7.31-6.32,14.42-13.84,23.99-16.52c0.42,0.75,1.28,2.25,1.7,3.01
			c-7.94,6.25-16.19,12.43-22.05,20.81l-1.1-0.73C171.58,253.75,171.4,251.13,171.07,248.78z"/>
	</g>
	<g>
		<path class="st90" d="M308.14,235.27c0.46-0.83,0.93-1.66,1.4-2.48c5.17,2.39,9.38,6.32,13.42,10.24
			c3.38,3.44,6.79,6.95,9.16,11.2c-1.98-0.69-3.95-1.35-5.93-1.99c1.06,4.74,3.08,9.18,4.28,13.88c-2.27-3.33-3.79-7.1-6.02-10.46
			c-1.88-2.96-4.17-5.62-6.05-8.58C315.84,242.45,311.76,239.03,308.14,235.27z"/>
	</g>
	<g>
		<path class="st91" d="M234.6,237.73c0.77-1.21,2.04-3.07,3.75-2.01c0.63,3.11-0.08,6.27-0.46,9.37
			c-0.96,8.69-1.24,17.46-2.55,26.12c-0.18-2.35-0.49-4.68-0.77-7.01c-2.4-0.11-5.42-1.18-7.26,0.95c-1.4,2.82-1.57,6.05-2.21,9.1
			c-1.29,6.46-1.99,13.06-4.29,19.28c0.88-13.65,4.93-26.79,8.09-40.03C230.64,248.2,231.7,242.56,234.6,237.73z"/>
	</g>
	<g>
		<path class="st92" d="M262.15,236.01c1.42,0.38,3.42-0.13,4.32,1.36c2.99,4.49,4.25,9.83,6.41,14.72
			c1.97,5.58,4.45,11.25,4.31,17.29c-0.77-1.42-1.59-2.8-2.4-4.19c-2,0.37-4.53-0.07-5.96,1.66c-1.26,2.22-1.04,4.9-1.15,7.37
			c-2.4-5.77-2.03-12.13-2.82-18.21C264.27,249.3,263.03,242.68,262.15,236.01z"/>
	</g>
	<g>
		<path class="st93" d="M411.84,239.75c3.17,2.77,5.22,6.49,7.26,10.11c3.91,7.37,7.58,15.41,6.53,23.98
			c-1.61-0.29-3.76,0.06-4.6-1.73c-2.62-4.13-3.93-8.9-5.53-13.48c-1.37-4.11-4.17-7.54-5.54-11.64c1.87,2.12,3.83,4.16,5.8,6.2
			C416.01,248.36,414.2,243.86,411.84,239.75z"/>
	</g>
	<g>
		<path class="st94" d="M97.64,244.48c1.82-1.34,4.04-1.82,6.22-2.21c-3.26,4.57-6.97,8.77-10.93,12.74
			c-4.85,5.36-8.64,11.6-11.63,18.16c-0.9,0.6-1.8,1.2-2.7,1.81c-0.43-4.44-0.44-9.02,1.32-13.19
			C84.66,254.97,90.75,249.11,97.64,244.48z"/>
	</g>
	<g>
		<path class="st95" d="M280.2,241.82c7.84,6.28,13.03,15.14,16.6,24.39c-1.68,0.68-3.36,1.36-5.04,2.05
			c-2.57-4.45-3.93-9.43-6.01-14.09C283.96,250.02,281.42,246.21,280.2,241.82z"/>
	</g>
	<g>
		<path class="st96" d="M144.15,250.66c1.6-0.36,3.19-0.72,4.79-1.08c-0.88,3.12-1.63,6.27-2.5,9.4c-2.77,5.35-4.12,11.6-8.42,16.04
			c-1.15,1.28-3.03,1.21-4.55,1.69c-0.19-2.6-0.36-5.3,0.82-7.71c0.09-0.51,0.29-1.54,0.38-2.06c2.42-5.74,5.71-11.06,9.18-16.21
			L144.15,250.66z"/>
	</g>
	<g>
		<path class="st97" d="M164.5,256.83c1.96-2.86,4.17-5.55,6.57-8.05c0.33,2.35,0.51,4.97,2.54,6.57c0.02,0.49,0.05,1.46,0.07,1.95
			c-1.19,1.2-2.37,2.4-3.56,3.6C168.24,259.56,166.36,258.2,164.5,256.83z"/>
	</g>
	<g>
		<path class="st98" d="M326.19,252.24c1.98,0.64,3.95,1.3,5.93,1.99l0.44,0.15c1.64,3.24,4.1,6.03,5.43,9.43
			c0.15,4.3-2.4,7.79-5.02,10.91c-0.74-2.89-1.65-5.74-2.5-8.6C329.27,261.42,327.25,256.98,326.19,252.24z"/>
	</g>
	<g>
		<path class="st99" d="M187.1,255.55c1.6,0.05,3.3-0.18,4.84,0.43c2,0.84,1.15,3.22,1.29,4.91c-2.47,4.31-4.81,8.74-6.2,13.55
			c-1.31,3.59-1.44,7.67-3.74,10.86c-0.31-1.51-0.29-3.17-1.07-4.53c-2.62-2.21-5.8-3.59-8.72-5.34
			C177.6,268.52,181.82,261.64,187.1,255.55z"/>
	</g>
	<g>
		<path class="st100" d="M202.11,268.47c1.35-5.92,5.37-10.6,9.88-14.41c0.89,0.91,1.77,1.82,2.66,2.73
			c-1.96,4.21-3.76,8.54-4.41,13.17l-0.57,0.1C206.99,271.03,204.41,269.76,202.11,268.47z"/>
	</g>
	<g>
		<path class="st101" d="M242.53,260.64c0.69-2.84,2.27-5.99,5.71-5.18c1.36,5.02,0.79,10.33,2.34,15.29l-0.17,0.71
			c-0.14,0.62-0.43,1.84-0.58,2.46c-3.04,0.7-6.11,1.32-9.18,1.89C241.28,270.75,242.29,265.74,242.53,260.64z"/>
	</g>
	<g>
		<path class="st102" d="M397.36,257.59c2.24,4.44,4.13,9.1,5.11,14c-0.29,6.23-1.57,12.43-4.57,17.95
			c-1.13-3.87-2.2-7.75-3.09-11.68c-0.33-3.15-1.69-6.53-0.57-9.61C395.97,264.94,396.57,261.2,397.36,257.59z"/>
	</g>
	<g>
		<path class="st103" d="M102.28,264.55c1.34-2.26,3.27-4.07,5.1-5.92c2.12,4.25,4.96,8.07,7.46,12.09c1.39-0.98,2.8-1.96,4.15-2.99
			c-1.75,3.6-3.68,7.17-6.16,10.33c-1.06,0.55-2.13,1.1-3.2,1.63c-0.45-1.67-0.72-3.42-1.58-4.93c-1.33-1.93-3.42-3.14-4.9-4.92
			C102.31,268.22,102.47,266.3,102.28,264.55z"/>
	</g>
	<g>
		<path class="st104" d="M239.94,277c0.82-5.43,0.04-11.33,2.59-16.36c-0.24,5.1-1.25,10.11-1.88,15.17
			c-0.12,1.99-0.15,3.98-0.2,5.98c-0.19,13.07-0.18,26.14-0.01,39.2c0.09,2.16,0.19,4.31,0.25,6.47
			c-0.07,10.68,2.26,21.22,1.92,31.91c-1.59-2.47-0.89-5.58-1.12-8.35c0.1-4.36-0.65-8.66-1.03-12.99
			c-0.1-9.71-2.11-19.31-1.69-29.04C239.15,298.32,237.85,287.54,239.94,277z"/>
	</g>
	<g>
		<path class="st105" d="M68.57,286.04c1.7-8.82,5.53-17.39,11.35-24.25c-1.76,4.17-1.75,8.75-1.32,13.19
			c0.9-0.61,1.8-1.21,2.7-1.81c-1.46,5.24-3.68,10.31-3.97,15.82c0.07,2.68-2.33,4.48-4.61,5.32
			C68.97,293.84,67.86,289.19,68.57,286.04z"/>
	</g>
	<g>
		<path class="st106" d="M376.59,261.79c3.12,4.43,5.13,9.5,7.15,14.49c1.61,4.4,3.53,8.73,4.32,13.38c-0.3,1.65,0.07,3.71-1.26,5
			c-2.68,2.94-5.81,5.41-8.75,8.08c-0.46,2.2-0.98,4.39-1.59,6.55c-0.22-4.56-0.22-9.14-0.76-13.68c-0.44-7.69-2.92-14.98-5.4-22.2
			c2.12-1.17,4.82-1.92,6.03-4.21C377.08,266.81,376.64,264.24,376.59,261.79z"/>
	</g>
	<g>
		<path class="st107" d="M227.31,265.15c1.84-2.13,4.86-1.06,7.26-0.95c0.28,2.33,0.59,4.66,0.77,7.01
			c-0.32,4.75-0.85,9.48-1.26,14.22l-0.33-1.29c-0.1-4.22,0.02-8.44,0.02-12.66c-2.22-0.34-4.42-0.67-6.63-1.01
			c-0.69,1.25-1.39,2.5-2.04,3.78C225.74,271.2,225.91,267.97,227.31,265.15z"/>
	</g>
	<g>
		<path class="st108" d="M337.99,263.81c4.33,8,7.02,17.18,6.39,26.33c-1.14,3.94-5.54,3.49-8.57,2.22
			c-4.92-4.65-0.72-11.88-2.84-17.64C335.59,271.6,338.14,268.11,337.99,263.81z"/>
	</g>
	<g>
		<path class="st109" d="M86.82,287.11c3.74-8.34,9.6-15.6,15.46-22.56c0.19,1.75,0.03,3.67,0.87,5.29c1.48,1.78,3.57,2.99,4.9,4.92
			c0.86,1.51,1.13,3.26,1.58,4.93c1.07-0.53,2.14-1.08,3.2-1.63c-3.65,7.59-8.55,14.51-13.15,21.54c-3.89-4.01-6.78-8.8-9.66-13.55
			C88.95,286.39,87.88,286.74,86.82,287.11z"/>
	</g>
	<g>
		<path class="st110" d="M268.83,266.85c1.43-1.73,3.96-1.29,5.96-1.66c0.81,1.39,1.63,2.77,2.4,4.19
			c2.84,7.89,4.13,16.26,6.03,24.42c-1.07-0.74-2.15-1.48-3.21-2.21c-2.56,0.93-5.11,1.89-7.65,2.86c-0.24,2.55-0.49,5.11-0.55,7.68
			c-1.86-9.23-2.35-18.67-4.13-27.91C267.79,271.75,267.57,269.07,268.83,266.85z"/>
	</g>
	<g>
		<path class="st111" d="M291.76,268.26c1.68-0.69,3.36-1.37,5.04-2.05l0.37-0.15c4.98,12.32,10.22,24.69,12.63,37.82
			c0.44,4.83,1,9.66,0.83,14.52c-1.32-1.08-2.63-2.17-3.95-3.24c0.08,0.48,0.23,1.43,0.3,1.9c-2.09-10.68-5.06-21.15-8.92-31.33
			c-2.27-5.75-3.97-11.75-6.81-17.26L291.76,268.26z"/>
	</g>
	<g>
		<path class="st112" d="M201.62,268.21l0.49,0.26c2.3,1.29,4.88,2.56,7.56,1.59c-0.7,2.12-1.22,4.3-1.57,6.51l-0.64-0.04
			c-2.16-0.15-4.32-0.32-6.48-0.49c-0.21-1.4-0.4-2.8-0.57-4.2C200.72,270.59,201.19,269.41,201.62,268.21z"/>
	</g>
	<g>
		<path class="st113" d="M227.14,270.47c2.21,0.34,4.41,0.67,6.63,1.01c0,4.22-0.12,8.44-0.02,12.66c-0.07,3.65-0.32,7.31-1.02,10.9
			c-1.05-4.11-5.93-2.25-8.95-2.39c-1.16,1.58-2.33,3.16-3.5,4.73c0.1-1.3,0.28-2.58,0.53-3.85c2.3-6.22,3-12.82,4.29-19.28
			C225.75,272.97,226.45,271.72,227.14,270.47z"/>
	</g>
	<g>
		<path class="st114" d="M250.41,271.46l0.11-0.23c1.13,6.94,1.04,14.04,2.63,20.94c0.26,8.71,2.42,17.22,2.71,25.93
			c-3.9,4.41-10.28,2.42-15.42,2.89c-0.17-13.06-0.18-26.13,0.01-39.2c3.26-0.11,6.52-0.13,9.79-0.07c-0.07-2.61-0.23-5.21-0.41-7.8
			C249.98,273.3,250.27,272.08,250.41,271.46z"/>
	</g>
	<g>
		<path class="st115" d="M190.39,307.16c2.11-12.05,5.14-24.07,10.02-35.32c0.17,1.4,0.36,2.8,0.57,4.2
			c2.16,0.17,4.32,0.34,6.48,0.49c-2.39,7.63-3.75,15.49-5.43,23.29l-0.37,1.14c-3.78,10.65,1.13,21.99-1.28,32.73
			c-0.61-3.87-0.36-7.81-0.54-11.71c0.07-3.33-0.09-6.64-0.3-9.95c-0.35,1.35-0.7,2.71-1.05,4.07c-2.08-0.35-4.55,0.07-6.32-1.25
			C190.93,312.49,190.76,309.75,190.39,307.16z"/>
	</g>
	<g>
		<path class="st116" d="M402.47,271.59c1.59,3.28,2.03,7,2.1,10.62c-0.92,6.2,0.89,14.37-5.41,18.24l-1.35,0.62
			c-1.37-7.67-2.86-15.41-3-23.21c0.89,3.93,1.96,7.81,3.09,11.68C400.9,284.02,402.18,277.82,402.47,271.59z"/>
	</g>
	<g>
		<path class="st117" d="M240.65,275.81c3.07-0.57,6.14-1.19,9.18-1.89c0.18,2.59,0.34,5.19,0.41,7.8
			c-3.27-0.06-6.53-0.04-9.79,0.07C240.5,279.79,240.53,277.8,240.65,275.81z"/>
	</g>
	<g>
		<path class="st118" d="M119.87,281.81c2.27-2.55,4.73-5.01,7.81-6.57c-1.31,3.03-3.33,5.65-5.35,8.23
			c-8.72,11.47-14.64,24.81-18.64,38.59c-0.79,0.15-2.37,0.43-3.15,0.58c-0.32-5.1,1.41-9.95,2.76-14.78
			C107.22,298.32,113.04,289.52,119.87,281.81z"/>
	</g>
	<g>
		<path class="st119" d="M168,288.11c0.91-4.59,3.68-8.44,5.5-12.68c2.92,1.75,6.1,3.13,8.72,5.34c0.78,1.36,0.76,3.02,1.07,4.53
			c-1.66,5.53-2.51,11.54-5.89,16.37c0.86-4,2.79-8.06,2.1-12.18c-2.1-2.35-4.97-3.78-7.58-5.45
			C170.6,285.37,169.25,286.7,168,288.11z"/>
	</g>
	<g>
		<path class="st120" d="M132.29,286.37c1.55-2.04,3.36-3.87,5.31-5.52c-0.2,1.84-0.5,3.71-1.54,5.29
			c-7,12.02-11.87,25.14-15.84,38.43c-1.55-1.39-3.19-2.66-4.77-4.01c-0.14-2.55,0.96-4.92,1.77-7.27
			C120.72,303.56,125.97,294.53,132.29,286.37z"/>
	</g>
	<g>
		<path class="st121" d="M350.46,281.72c0.84,0.02,1.69,0.06,2.54,0.09c1.11,2.41,2.15,4.86,2.86,7.44
			c-0.75-0.88-1.52-1.73-2.29-2.57c0.2,1.87,0.42,3.74,0.71,5.61C352.48,288.98,350.93,285.48,350.46,281.72z"/>
	</g>
	<g>
		<path class="st122" d="M399.16,300.45c6.3-3.87,4.49-12.04,5.41-18.24c1.74,3.67,0.97,7.88,1.31,11.81
			c-0.2,4.54,0.72,10.16-3.3,13.39c-3.03,0.34-3.59-3.96-4.5-6.09L399.16,300.45z"/>
	</g>
	<g>
		<path class="st123" d="M168,288.11c1.25-1.41,2.6-2.74,3.92-4.07c2.61,1.67,5.48,3.1,7.58,5.45c0.69,4.12-1.24,8.18-2.1,12.18
			c-1.4,3.85-3.88,8.36-8.4,8.89c-2.25,0.44-3.64-1.96-4.25-3.76C163.63,300.43,165.32,293.87,168,288.11z"/>
	</g>
	<g>
		<path class="st124" d="M86.82,287.11c1.06-0.37,2.13-0.72,3.2-1.06c2.88,4.75,5.77,9.54,9.66,13.55
			c-5.36,7.81-10.81,15.83-18.21,21.85c-1.89,1.87-4.62,1.13-6.97,1c-0.6-8.41,3.1-16.3,6.07-23.96
			C82.58,294.7,83.77,290.19,86.82,287.11z"/>
	</g>
	<g>
		<path class="st125" d="M353.57,286.68c0.77,0.84,1.54,1.69,2.29,2.57c3.85,8.63,6.4,17.97,7.71,27.35
			c-0.49,4.93,0.29,10.5-2.96,14.66c-0.3-3.85-0.55-7.71-0.99-11.54c-0.26,4.2-0.49,8.43-1.29,12.58
			c0.26-7.09,0.35-14.19-0.14-21.26c-0.73-6.36-2.45-12.54-3.91-18.75C353.99,290.42,353.77,288.55,353.57,286.68z"/>
	</g>
	<g>
		<path class="st126" d="M388.06,289.66c2.87,8.94,2.38,18.39,2.42,27.65c-1.69,1.99-3.48,4.59-6.42,4.5
			c-5.17,0.64-10.15-3.66-10.47-8.78c1.63-5.67,2.28-11.53,2.11-17.42c0.54,4.54,0.54,9.12,0.76,13.68
			c0.61-2.16,1.13-4.35,1.59-6.55c2.94-2.67,6.07-5.14,8.75-8.08C388.13,293.37,387.76,291.31,388.06,289.66z"/>
	</g>
	<g>
		<path class="st127" d="M223.78,292.65c3.02,0.14,7.9-1.72,8.95,2.39c-0.32,4.48-0.13,9.04-1.18,13.44
			c-0.34-2.33-0.8-4.63-1.21-6.93c-2.39-0.31-4.77-0.87-7.18-0.71c-1.6,1.12-2.64,2.83-3.77,4.39c0.2-2.63,0.58-5.23,0.89-7.85
			C221.45,295.81,222.62,294.23,223.78,292.65z"/>
	</g>
	<g>
		<path class="st128" d="M272.36,294.45c2.54-0.97,5.09-1.93,7.65-2.86c1.06,0.73,2.14,1.47,3.21,2.21c0.17,1.76,0.33,3.53,0.5,5.31
			c-3.19,0.57-6.28,1.62-9.18,3.07c-0.25,3.08-0.62,6.14-0.99,9.21c-1.39-2.88-1.37-6.16-1.74-9.26
			C271.87,299.56,272.12,297,272.36,294.45z"/>
	</g>
	<g>
		<path class="st129" d="M133.81,325.07c1.55-10.68,4.18-21.3,8.5-31.22c-0.01,1.29,0.07,2.58,0.23,3.87
			c0.09,2.44,3.03,3.02,4.61,4.36c1.48-2.45,3.03-4.85,4.56-7.26c-0.81,4.92-3.03,9.45-4.38,14.24c-2.15,8.12-3.92,16.44-3.67,24.9
			c-0.06,4.77,0.66,9.66-0.6,14.34c-0.16-4.12,0.16-8.36-1.06-12.34c-2.22-2.22-5.01-3.92-6.6-6.74c-0.3,1.6-0.6,3.21-0.92,4.81
			c-0.24-0.29-0.73-0.87-0.97-1.15C133.15,330.27,133.36,327.64,133.81,325.07z"/>
		<path class="st129" d="M256.47,323.46c1.99,8.33,1.7,16.96,3.3,25.35c0.96,4.92,0.87,9.95,1.16,14.94
			c-0.07,1.17-0.14,2.34-0.19,3.52c-4.41-0.77-8.89-0.38-13.31,0.14c-0.26-0.55-0.78-1.67-1.04-2.22c-0.72,2.22-1.46,4.45-2.06,6.71
			l-0.26,0.91c-0.37-4.5-1.35-8.93-1.46-13.44c0.34-10.69-1.99-21.23-1.92-31.91c5.06,1.45,10.28,0.63,15.29-0.57
			C256.1,326.03,256.35,324.32,256.47,323.46z"/>
	</g>
	<g>
		<path class="st130" d="M329.22,298.72c2.49,0.99,3.18,3.71,4.1,5.96c1.86,5.09,3.92,10.2,4.43,15.65
			c-1.54-3.86-2.9-7.79-4.33-11.69c-0.15,1.65-0.26,3.3-0.35,4.95C331.7,308.66,329.81,303.83,329.22,298.72z"/>
	</g>
	<g>
		<path class="st131" d="M223.16,300.84c2.41-0.16,4.79,0.4,7.18,0.71c0.41,2.3,0.87,4.6,1.21,6.93c-0.01,3.74-0.98,7.4-0.97,11.15
			h-0.18c-3.7-0.06-7.41-0.12-11.11-0.17c-0.42-2.81-0.78-5.65-0.71-8.5c0.13-1.92,0.32-3.86,0.81-5.73
			C220.52,303.67,221.56,301.96,223.16,300.84z"/>
	</g>
	<g>
		<path class="st132" d="M200.38,333.69c2.41-10.74-2.5-22.08,1.28-32.73c-0.26,12-0.66,24.03-0.12,36.03
			c0.97,6.74,3.24,13.23,4.21,19.98c0.4,2.91,0.75,5.84,1.46,8.71c-1.75-1.46-3.59-3.07-5.99-3.16c-4.54-0.43-8.84-1.96-13.04-3.64
			c-0.24,5.18-0.28,10.37-0.07,15.55c-2.25-7.24-1.37-14.92-1.92-22.37c0.27-11.74,0.14-23.62,2.53-35.16
			c0.11,1.94,0.31,3.88,0.5,5.82c2.88,0.84,5.76,1.69,8.64,2.52c0.66-1.09,1.3-2.2,1.98-3.26
			C200.02,325.88,199.77,329.82,200.38,333.69z"/>
	</g>
	<g>
		<path class="st133" d="M309.8,303.88l0.05-1.29c5.19,19.82,9.14,40.2,8.38,60.78c-1.4-3.87-2.12-7.94-2.42-12.04
			c-0.83,0.51-1.66,1.03-2.49,1.55c-0.76,7.51,0.89,15.39-1.8,22.61c-0.11-11.15,0.8-22.37-0.73-33.46
			c-0.22-8.46-2.49-16.65-3.81-24.97c-0.07-0.47-0.22-1.42-0.3-1.9c1.32,1.07,2.63,2.16,3.95,3.24
			C310.8,313.54,310.24,308.71,309.8,303.88z"/>
	</g>
	<g>
		<path class="st134" d="M98.57,318.57c1.34-3.66,2.22-7.62,4.73-10.71c-1.35,4.83-3.08,9.68-2.76,14.78
			c0.78-0.15,2.36-0.43,3.15-0.58c-0.46,3.68-1.58,7.23-2.32,10.85c-0.87,0.73-1.75,1.45-2.63,2.18c-1.09-1.46-2.18-2.92-3.21-4.43
			C95.88,326.51,97.35,322.54,98.57,318.57z"/>
	</g>
	<g>
		<path class="st135" d="M188.72,316.9c0.28-3.28,0.68-6.59,1.67-9.74c0.37,2.59,0.54,5.33,1.78,7.69c1.77,1.32,4.24,0.9,6.32,1.25
			c0.35-1.36,0.7-2.72,1.05-4.07c0.21,3.31,0.37,6.62,0.3,9.95c-0.68,1.06-1.32,2.17-1.98,3.26c-2.88-0.83-5.76-1.68-8.64-2.52
			C189.03,320.78,188.83,318.84,188.72,316.9z"/>
	</g>
	<g>
		<path class="st136" d="M333.42,308.64c1.43,3.9,2.79,7.83,4.33,11.69c0.85,2.13,1.44,4.37,1.65,6.66
			c0.57,5.41,1.7,10.89,0.87,16.33c-1.15,3.72-1.84,7.55-2.84,11.3c-0.24,1.56-2,1.93-3.08,2.75c1.32-12.4,2.09-25.09-0.16-37.42
			c-0.41-2.12-1.01-4.2-1.12-6.36C333.16,311.94,333.27,310.29,333.42,308.64z"/>
	</g>
	<g>
		<path class="st137" d="M218.33,334.92c-1.57-7.92,0-15.99,0.25-23.96c-0.07,2.85,0.29,5.69,0.71,8.5
			c3.7,0.05,7.41,0.11,11.11,0.17c-0.36,4.14-0.82,8.27-0.95,12.43c-0.01,2.95-1.85,5.41-3.78,7.47c-1.44,0-2.87,0.02-4.31,0.04
			C220.14,338.18,218.57,336.87,218.33,334.92z"/>
	</g>
	<g>
		<path class="st138" d="M157.68,317.46c0.47-1.46,2.11-1,3.27-1.22c-6.38,11.98-3.19,25.89-1.45,38.6c0.1,1.63,0.13,3.27,0.15,4.91
			c-2.05-1.36-4.1-2.74-6.14-4.11c-0.41-6.45-0.78-12.9-1.14-19.34C152.69,329.74,154.61,323.25,157.68,317.46z"/>
	</g>
	<g>
		<path class="st139" d="M363.57,316.6c1.48,4.56,1.05,9.42,1.11,14.14c-0.15,3.67,0.06,7.47-1.14,10.99
			c-1.84,2.67-3.94,5.14-6.05,7.6c-0.3-2.51-0.59-5.02-0.71-7.55c0.17-3.21,0.96-6.34,1.55-9.48c0.8-4.15,1.03-8.38,1.29-12.58
			c0.44,3.83,0.69,7.69,0.99,11.54C363.86,327.1,363.08,321.53,363.57,316.6z"/>
	</g>
	<g>
		<path class="st140" d="M174.91,318.72c0.49-0.16,1.47-0.46,1.96-0.61c-1.9,8.34-1.26,16.85-1.27,25.32
			c-1.24-3.97-1.44-8.19-2.81-12.12C171.53,327.04,173.94,322.82,174.91,318.72z"/>
	</g>
	<g>
		<path class="st141" d="M255.86,318.1l0.54-0.46c0,1.94,0.13,3.88,0.07,5.82c-0.12,0.86-0.37,2.57-0.49,3.43
			c-5.01,1.2-10.23,2.02-15.29,0.57c-0.06-2.16-0.16-4.31-0.25-6.47C245.58,320.52,251.96,322.51,255.86,318.1z"/>
	</g>
	<g>
		<path class="st142" d="M114.75,319.98c0.17,0.14,0.52,0.44,0.7,0.58c1.58,1.35,3.22,2.62,4.77,4.01c0.52,2.86-0.97,6.29-1.8,9.23
			c-0.68,1.55-1.42,3.06-2.16,4.59c-2.48-1.8-3.49-4.7-3.91-7.62C112.93,327.12,113.91,323.56,114.75,319.98z"/>
	</g>
	<g>
		<path class="st143" d="M334.19,319.95c2.25,12.33,1.48,25.02,0.16,37.42c1.08-0.82,2.84-1.19,3.08-2.75
			c1-3.75,1.69-7.58,2.84-11.3c0.84,9.77-1.74,19.43-3.03,29.06c-1.11,0.38-2.23,0.73-3.36,1.06c-2.48-1-3.85-3.86-3.16-6.42
			c1.35-7.64,2.87-15.28,3.53-23.02C334.82,335.99,334.47,327.96,334.19,319.95z"/>
	</g>
	<g>
		<path class="st144" d="M135.4,329.22c1.59,2.82,4.38,4.52,6.6,6.74c1.22,3.98,0.9,8.22,1.06,12.34c-0.11,3.46-2.05,6.46-4.82,8.44
			c-1.15-0.56-2.3-1.11-3.45-1.65c-1.29-7.61-2.89-15.33-2.02-23.07c0.18,0.21,0.55,0.64,0.74,0.86c0.24,0.28,0.73,0.86,0.97,1.15
			C134.8,332.43,135.1,330.82,135.4,329.22z"/>
	</g>
	<g>
		<path class="st145" d="M95.53,330.66c1.03,1.51,2.12,2.97,3.21,4.43c0.88-0.73,1.76-1.45,2.63-2.18c-0.09,3.55,0.96,8-2.11,10.64
			c-1.7,0.58-3.71,0.21-4.37-1.68C93.72,338.21,94.6,334.28,95.53,330.66z"/>
	</g>
	<g>
		<path class="st146" d="M109.8,348.03c0.99-5.74,0.18-11.8,2.55-17.26c0.42,2.92,1.43,5.82,3.91,7.62
			c0.74-1.53,1.48-3.04,2.16-4.59c-0.5,6.44-0.96,12.88-0.84,19.35c0.38,2.48-2.31,3.04-4.04,3.77
			C111.77,354.26,109.31,351.46,109.8,348.03z"/>
	</g>
	<g>
		<path class="st147" d="M172.79,331.31c1.37,3.93,1.57,8.15,2.81,12.12c1.65,5.61,2.19,11.46,3.45,17.16
			c0.64,3.16,1.33,6.32,1.96,9.5c-2.15-0.98-4.98-1.31-6.22-3.57c-0.95-1.58-1.7-3.26-2.42-4.95c-1.29-3.38-0.87-7.08-0.96-10.62
			C171.54,344.39,170.88,337.68,172.79,331.31z"/>
	</g>
	<g>
		<path class="st148" d="M151.49,351.01c0.16-4.89-0.88-10.03,0.88-14.71c0.36,6.44,0.73,12.89,1.14,19.34
			c2.04,1.37,4.09,2.75,6.14,4.11c-0.02-1.64-0.05-3.28-0.15-4.91c3.52,5.01,6.83,12.17,3.02,17.88c-0.98-0.01-2.92-0.02-3.9-0.03
			C153.67,366.59,152.34,358.59,151.49,351.01z"/>
	</g>
	<g>
		<path class="st149" d="M212.62,341.8c0.53-0.14,1.57-0.43,2.09-0.57c-0.07,0.56-0.19,1.68-0.26,2.23
			c-1.16,7.47-0.9,15.05-0.53,22.57c0.27,2.38,0.33,5.19,2.18,6.96c2.04,1.42,4.55,0.13,6.67-0.39l0.71-0.21
			c0.02,0.6,0.07,1.8,0.09,2.4c0.09,3.98,0.56,7.93,1.12,11.87c-2.36-0.16-4.72-0.32-7.08-0.48c-0.56-0.79-1.12-1.57-1.67-2.34
			c0.07,1.44,0.16,2.89,0.28,4.34c-1.33-7.02-3.16-13.97-3.53-21.14C212.35,358.63,212.57,350.21,212.62,341.8z"/>
	</g>
	<g>
		<path class="st150" d="M354.63,353.1c0.27-3.85,1.31-7.58,2.15-11.32c0.12,2.53,0.41,5.04,0.71,7.55c2.11-2.46,4.21-4.93,6.05-7.6
			c-0.58,4.87-0.04,10.62-3.42,14.58C357.69,357.44,355.45,355.2,354.63,353.1z"/>
	</g>
	<g>
		<path class="st151" d="M214.45,343.46c3.34,9.51,6.88,19.14,8.32,29.14c-2.12,0.52-4.63,1.81-6.67,0.39
			c-1.85-1.77-1.91-4.58-2.18-6.96C213.55,358.51,213.29,350.93,214.45,343.46z"/>
	</g>
	<g>
		<path class="st152" d="M287.28,344.53c3.36,0.67,4.11,4.19,5.25,6.87c2.01,5.69,4.15,11.43,5.02,17.42
			c-0.3,1.89-0.68,3.78-1.06,5.67c-0.93-0.79-1.87-1.58-2.8-2.36C293.44,362.61,290.48,353.42,287.28,344.53z"/>
	</g>
	<g>
		<path class="st153" d="M231.86,346.81c2.9,2.74,2.96,6.98,4.03,10.59c1.12,6.03,2.82,11.92,4.21,17.89
			c-1.34,0.6-2.61,1.45-4.08,1.74c-2.29-0.05-3.2-2.53-4.38-4.08C230.28,364.34,230.53,355.41,231.86,346.81z"/>
	</g>
	<g>
		<path class="st154" d="M271.45,346.73c3.32,3.91,3.99,9.24,5.12,14.08c-0.1,2.91-0.37,5.85-1.16,8.68
			c-1.16-0.12-2.3-0.37-3.43-0.59c-0.02,2.68-0.08,5.36-0.14,8.04c-0.09,2.09-0.26,4.18-0.39,6.27
			C271.49,371.05,271.08,358.88,271.45,346.73z"/>
	</g>
	<g>
		<path class="st155" d="M313.32,352.88c0.83-0.52,1.66-1.04,2.49-1.55c0.3,4.1,1.02,8.17,2.42,12.04
			c1.31,5.08,0.34,10.42,0.61,15.61c-0.04,8.03,2.02,16.81-1.84,24.28c-2.33,1.17-4.07-1.1-5.32-2.75c-1.69-2.85-1.1-6.34-1.3-9.5
			c0.15-5.17-0.61-10.55,1.14-15.52C314.21,368.27,312.56,360.39,313.32,352.88z"/>
		<path class="st155" d="M188.18,358.88c4.2,1.68,8.5,3.21,13.04,3.64c2.4,0.09,4.24,1.7,5.99,3.16c1.87,8.75,3.14,17.81,1.86,26.74
			c-0.63,3.54-3.28,6.1-5.87,8.36c-5.61-1.33-9.24-6.25-11.31-11.33c-2.14-4.73-3.34-9.86-3.78-15.02
			C187.9,369.25,187.94,364.06,188.18,358.88z"/>
	</g>
	<g>
		<path class="st156" d="M179.05,360.59c3.09,4.79,4.63,10.44,5.63,16c-0.36,1.51-0.74,3.02-1.13,4.53
			c-2.87-0.78-5.75-1.62-8.41-2.96c-1.61-5.38-2.82-10.95-2.77-16.59c0.72,1.69,1.47,3.37,2.42,4.95c1.24,2.26,4.07,2.59,6.22,3.57
			C180.38,366.91,179.69,363.75,179.05,360.59z"/>
	</g>
	<g>
		<path class="st157" d="M276.57,360.81c0.96,3.51,1.85,7.07,2.09,10.72c-0.27,2.95-0.66,5.89-0.99,8.83
			c-2.64,0.25-4.72-1.05-5.83-3.42c0.06-2.68,0.12-5.36,0.14-8.04c1.13,0.22,2.27,0.47,3.43,0.59
			C276.2,366.66,276.47,363.72,276.57,360.81z"/>
	</g>
	<g>
		<path class="st158" d="M260.93,363.75l0.17-1.24c1.13,6.32,2.01,12.69,2.61,19.09c0.96,7.43,2.74,14.91,1.63,22.43
			c-1.13,3.46-4.58,6.32-8.38,5.43c-4.02-0.31-5.86-4.36-7.1-7.65c-1.67-5.18-3-10.49-3.75-15.88c-0.67-4.66-2.18-9.28-1.78-14.03
			c0.6-2.26,1.34-4.49,2.06-6.71c0.26,0.55,0.78,1.67,1.04,2.22c4.42-0.52,8.9-0.91,13.31-0.14
			C260.79,366.09,260.86,364.92,260.93,363.75z"/>
	</g>
	<g>
		<path class="st159" d="M297.55,368.82c3.29,7.6,1.76,16.12,2.06,24.16c-2.08,0.59-4.15,1.18-6.22,1.77
			c0.56-7.52,0.37-15.08,0.3-22.62c0.93,0.78,1.87,1.57,2.8,2.36C296.87,372.6,297.25,370.71,297.55,368.82z"/>
	</g>
	<g>
		<path class="st160" d="M278.66,371.53c1.56,3.92,1.42,8.27,1.72,12.43c-0.08,2.96-0.39,5.91-0.69,8.85
			c-1.87,0.17-3.73,0.39-5.6,0.36c-1.24-1.64-1.97-3.58-2.62-5.5c-0.16-1.48-0.11-2.98-0.02-4.46c0.13-2.09,0.3-4.18,0.39-6.27
			c1.11,2.37,3.19,3.67,5.83,3.42C278,377.42,278.39,374.48,278.66,371.53z"/>
	</g>
	<g>
		<path class="st161" d="M231.64,372.95c1.18,1.55,2.09,4.03,4.38,4.08c1.47-0.29,2.74-1.14,4.08-1.74
			c0.75,2.06,1.62,4.17,1.51,6.42c-0.06,2.01-0.17,4.02-0.27,6.03c-1.87,0.31-3.86,1.41-5.73,0.63c-1.38-1.32-2.29-3.05-3.23-4.69
			C231.7,380.15,231.76,376.53,231.64,372.95z"/>
	</g>
	<g>
		<path class="st162" d="M223.57,374.79c1.72,4.11,2.28,8.58,2.82,12.97c-0.19,3.11-0.53,6.21-0.81,9.31
			c-2.8-0.27-5.56-0.83-8.16-1.93c-0.43-2.32-0.97-4.62-1.2-6.96c-0.12-1.45-0.21-2.9-0.28-4.34c0.55,0.77,1.11,1.55,1.67,2.34
			c2.36,0.16,4.72,0.32,7.08,0.48C224.13,382.72,223.66,378.77,223.57,374.79z"/>
	</g>
	<g>
		<path class="st163" d="M184.68,376.59c1.79,4.72,0.79,9.89-0.99,14.45c-1.28-0.24-2.62-0.29-3.83-0.79
			c-2.6-3.53-3.81-7.87-4.72-12.09c2.66,1.34,5.54,2.18,8.41,2.96C183.94,379.61,184.32,378.1,184.68,376.59z"/>
	</g>
	<g>
		<path class="st164" d="M241.61,381.71c1.29,4.26,1.94,8.68,3.29,12.93c-2.59,1.34-5.66,2.74-8.58,1.63
			c-2.01-1.96-2.64-4.88-3.57-7.43c-0.37-1.7-0.32-3.44-0.37-5.16c0.94,1.64,1.85,3.37,3.23,4.69c1.87,0.78,3.86-0.32,5.73-0.63
			C241.44,385.73,241.55,383.72,241.61,381.71z"/>
	</g>
	<g>
		<path class="st165" d="M280.38,383.96c1.01,12.29,0.69,24.74-1,36.97c-0.16,2.33-2.64,3.31-4.23,4.57
			c-0.67-0.36-2.01-1.08-2.68-1.44c-0.2-4.59,0.23-9.21-0.41-13.76c-1.24-7.48-0.55-15.09-0.59-22.63c0.65,1.92,1.38,3.86,2.62,5.5
			c1.87,0.03,3.73-0.19,5.6-0.36C279.99,389.87,280.3,386.92,280.38,383.96z"/>
	</g>
	<g>
		<path class="st166" d="M226.39,387.76c1.48,2.85,1.07,6.15,1.23,9.24c-0.04,3.76,0.41,7.61-0.5,11.31
			c-1.46,0.73-2.72,0.54-3.78-0.59c-3.51-3.27-4.66-8.14-5.92-12.58c2.6,1.1,5.36,1.66,8.16,1.93
			C225.86,393.97,226.2,390.87,226.39,387.76z"/>
	</g>
	<g>
		<path class="st167" d="M232.75,388.84c0.93,2.55,1.56,5.47,3.57,7.43c2.92,1.11,5.99-0.29,8.58-1.63
			c2.22,6.82,2.74,14.96-0.96,21.36c-0.83,2.25-3.79,1.5-4.87-0.15c-2.08-2.86-2.79-6.46-3.38-9.88
			C234.93,400.22,233.38,394.61,232.75,388.84z"/>
	</g>
	<g>
		<path class="st168" d="M293.39,394.75c2.07-0.59,4.14-1.18,6.22-1.77c0.32,6.4-1,12.71-1.14,19.09c-0.08,2.22-0.48,4.87-2.56,6.13
			c-3.4,1.68-6.21-3.23-5.35-6.2C291.71,406.29,292.45,400.5,293.39,394.75z"/>
	</g>
	<g>
		<path class="st169" d="M211.4,419.57c1.56-0.02,3.13-0.04,4.69-0.04c0.44,0.61,1.32,1.81,1.76,2.41
			c-0.55,1.21-1.09,2.42-1.63,3.64c-1.6-0.26-3.67,0.3-4.74-1.26C211.28,422.74,211.38,421.15,211.4,419.57z"/>
	</g>
</g>
</svg>
